
        <svg xmlns="http://www.w3.org/2000/svg" xmlns:xlink="http://www.w3.org/1999/xlink" version="1.1" width="3162.263241741332" height="1043.6856644025504" viewBox="0 0 3162.263241741332 1043.6856644025504">
			
			<g transform="scale(8.113162087066575) translate(10, 10)">
				<defs id="SvgjsDefs1015"><linearGradient id="SvgjsLinearGradient1020"><stop id="SvgjsStop1021" stop-color="#8f5e25" offset="0"/><stop id="SvgjsStop1022" stop-color="#fbf4a1" offset="0.5"/><stop id="SvgjsStop1023" stop-color="#8f5e25" offset="1"/></linearGradient></defs><g id="SvgjsG1016" featureKey="hmhgWD-0" transform="matrix(30.210788878441022,0,0,30.210788878441022,-28.91172727597396,-20.6913480569621)" fill="#fff"><g xmlns="http://www.w3.org/2000/svg"><path d="M2.501,4.281l-1.543-0.89L0.957,1.61l1.542-0.892l1.543,0.891l0.001,1.78L2.501,4.281z M1.408,3.132   l1.093,0.63L3.593,3.13L3.592,1.869L2.499,1.238L1.407,1.87L1.408,3.132z"/><path d="M2.5,3.433L1.693,2.967L1.692,2.034l0.807-0.466l0.809,0.466v0.932L2.5,3.433z M2.143,2.707L2.5,2.913   l0.357-0.207V2.294L2.5,2.088L2.143,2.294V2.707z"/></g></g><g id="SvgjsG1017" featureKey="1RRcwp-0" transform="matrix(2.013562739339287,0,0,2.013562739339287,111.75159109200823,22.724049811869833)" fill="#fff"><path d="M6.62 20.12 c-0.46 0 -0.94 -0.06 -1.44 -0.16 c-1.48 -0.3 -2.92 -1.02 -4.18 -2.12 l-0.38 -0.34 l1.76 -2 l0.38 0.34 c0.92 0.8 1.94 1.34 2.94 1.54 l0.02 0 c0.3 0.06 0.6 0.1 0.9 0.1 c0.5 0 0.96 -0.1 1.34 -0.28 c0.48 -0.2 1.04 -0.64 1.04 -1.46 c0 -0.44 -0.22 -0.78 -0.68 -1.06 c-0.56 -0.34 -1.32 -0.52 -1.86 -0.62 c-0.24 -0.04 -2.28 -0.46 -3.22 -0.98 c-0.62 -0.38 -1.1 -0.86 -1.44 -1.42 c-0.34 -0.58 -0.5 -1.22 -0.5 -1.92 c0 -0.76 0.24 -1.52 0.7 -2.22 c0.44 -0.58 1.04 -1.06 1.76 -1.4 s1.52 -0.52 2.38 -0.52 c0.34 0 0.7 0.04 1.06 0.08 c1.32 0.24 2.62 0.84 3.76 1.8 l0.38 0.32 l-1.7 2.06 l-0.38 -0.32 c-1.3 -1.06 -2.42 -1.3 -3.14 -1.3 c-0.46 0 -0.88 0.1 -1.24 0.26 c-0.56 0.26 -0.92 0.74 -0.92 1.22 c0 0.44 0.16 0.72 0.54 0.98 s0.96 0.46 1.88 0.66 c0.12 0.02 0.28 0.06 0.44 0.1 c0.84 0.16 1.96 0.4 2.74 0.86 c0.68 0.36 1.2 0.86 1.56 1.44 s0.54 1.26 0.54 1.98 c0 0.9 -0.24 1.7 -0.72 2.38 c-0.42 0.58 -1.04 1.08 -1.86 1.48 c-0.7 0.36 -1.48 0.52 -2.46 0.52 z M17.98 20.22 c-1.16 0 -2.24 -0.42 -3.02 -1.2 c-0.82 -0.78 -1.26 -1.84 -1.26 -2.98 l0 -5.2 l2.52 0 l0 5.2 c0 0.94 0.78 1.7 1.76 1.7 s1.78 -0.76 1.78 -1.7 l0 -5.2 l2.52 0 l0 5.2 c0 1.12 -0.46 2.18 -1.28 2.98 c-0.8 0.78 -1.86 1.2 -3.02 1.2 z M39.68 20 l-2.5 0 l0 -4.9 c0 -1.06 -0.9 -2 -1.94 -2 c-1.08 0 -1.96 0.92 -1.96 2 l0 4.9 l-2.5 0 l0 -4.9 c0 -1.08 -0.88 -2 -1.94 -2 s-1.94 0.94 -1.94 2 l0 4.9 l-2.5 0 l0 -9.16 l2.5 0 l0 0.66 c0.62 -0.62 1.28 -0.84 1.94 -0.84 c0.58 0 1.16 0.12 1.72 0.36 c0.52 0.24 1 0.58 1.44 1 c0 0.02 0.02 0.02 0.04 0.04 l0.04 -0.04 c0.42 -0.42 0.9 -0.76 1.44 -1 c0.56 -0.24 1.14 -0.36 1.72 -0.36 c1.18 0 2.3 0.46 3.14 1.28 c0.84 0.86 1.3 1.98 1.3 3.16 l0 4.9 z M46.04 20.18 c-1.26 0 -2.46 -0.48 -3.38 -1.38 c-0.9 -0.92 -1.4 -2.12 -1.4 -3.38 s0.5 -2.46 1.4 -3.38 c0.9 -0.9 2.1 -1.38 3.38 -1.38 c0.84 0 1.6 0.3 2.26 0.9 l0.1 0.08 l0 -0.8 l2.42 0 l0 9.16 l-2.42 0 l0 -0.72 l-0.1 0.1 c-0.72 0.7 -1.54 0.8 -2.26 0.8 z M46.04 13 c-1.28 0 -2.36 1.12 -2.36 2.42 c0 1.32 1.08 2.42 2.36 2.42 s2.36 -1.1 2.36 -2.42 c0 -1.3 -1.08 -2.42 -2.36 -2.42 z M62.2 20 l-2.52 0 l0 -4.9 c0 -1.08 -0.86 -1.92 -1.94 -1.92 c-1.04 0 -1.94 0.86 -1.94 1.92 l0 4.9 l-2.5 0 l0 -9.16 l2.5 0 l0 0.66 c0.62 -0.62 1.28 -0.84 1.94 -0.84 c1.2 0 2.32 0.46 3.16 1.28 c0.84 0.86 1.3 1.98 1.3 3.16 l0 4.9 z M70.46000000000001 20 l-2.4 0 c-0.88 0 -1.7 -0.34 -2.3 -0.94 c-0.62 -0.62 -0.94 -1.42 -0.94 -2.3 l0 -3.8 l-1.28 0 l0 -2.06 l1.28 0 l0 -3.6 l2.38 0 l0 3.6 l2.66 0 l0 2.06 l-2.66 0 l0 3.76 c0 0.5 0.44 0.96 0.88 0.96 l1.74 0 z M75.94 20.18 c-1.26 0 -2.46 -0.48 -3.38 -1.38 c-0.9 -0.92 -1.4 -2.12 -1.4 -3.38 s0.5 -2.46 1.4 -3.38 c0.9 -0.9 2.1 -1.38 3.38 -1.38 c0.84 0 1.6 0.3 2.26 0.9 l0.1 0.08 l0 -0.8 l2.42 0 l0 9.16 l-2.42 0 l0 -0.72 l-0.1 0.1 c-0.72 0.7 -1.54 0.8 -2.26 0.8 z M75.94 13 c-1.28 0 -2.36 1.12 -2.36 2.42 c0 1.32 1.08 2.42 2.36 2.42 s2.36 -1.1 2.36 -2.42 c0 -1.3 -1.08 -2.42 -2.36 -2.42 z M88.63999999999999 25.22 c-1.46 0 -2.84 -0.54 -3.84 -1.52 l-0.46 -0.48 l2.24 -1.62 l0.3 0.3 c0.5 0.42 1.14 0.66 1.76 0.66 c1.52 0 2.8 -1.3 2.8 -2.84 l0 -11.28 l-3.52 0 l0 -2.7 l6.24 0 l0 13.98 c0 1.48 -0.58 2.88 -1.62 3.92 c-0.5 0.52 -1.12 0.9 -1.78 1.18 c-0.66 0.26 -1.38 0.4 -2.12 0.4 z M100.83999999999999 20.18 c-1.26 0 -2.46 -0.48 -3.38 -1.38 c-0.9 -0.92 -1.4 -2.12 -1.4 -3.38 s0.5 -2.46 1.4 -3.38 c0.9 -0.9 2.1 -1.38 3.38 -1.38 c0.84 0 1.6 0.3 2.26 0.9 l0.1 0.08 l0 -0.8 l2.42 0 l0 9.16 l-2.42 0 l0 -0.72 l-0.1 0.1 c-0.72 0.7 -1.54 0.8 -2.26 0.8 z M100.83999999999999 13 c-1.28 0 -2.36 1.12 -2.36 2.42 c0 1.32 1.08 2.42 2.36 2.42 s2.36 -1.1 2.36 -2.42 c0 -1.3 -1.08 -2.42 -2.36 -2.42 z M116.99999999999999 20 l-2.52 0 l0 -4.9 c0 -1.08 -0.86 -1.92 -1.94 -1.92 c-1.04 0 -1.94 0.86 -1.94 1.92 l0 4.9 l-2.5 0 l0 -9.16 l2.5 0 l0 0.66 c0.62 -0.62 1.28 -0.84 1.94 -0.84 c1.2 0 2.32 0.46 3.16 1.28 c0.84 0.86 1.3 1.98 1.3 3.16 l0 4.9 z M123.35999999999999 20.18 c-1.26 0 -2.46 -0.48 -3.38 -1.38 c-0.9 -0.92 -1.4 -2.12 -1.4 -3.38 s0.5 -2.46 1.4 -3.38 c0.9 -0.9 2.1 -1.38 3.38 -1.38 c0.84 0 1.6 0.3 2.26 0.9 l0.1 0.08 l0 -0.8 l2.42 0 l0 9.16 l-2.42 0 l0 -0.72 l-0.1 0.1 c-0.72 0.7 -1.54 0.8 -2.26 0.8 z M123.35999999999999 13 c-1.28 0 -2.36 1.12 -2.36 2.42 c0 1.32 1.08 2.42 2.36 2.42 s2.36 -1.1 2.36 -2.42 c0 -1.3 -1.08 -2.42 -2.36 -2.42 z"/></g>
			</g>
		</svg>
	